# Blender v2.81 (sub 16) OBJ File: 'rail.blend'
# www.blender.org
mtllib tray_goal.mtl
o Tray
v 4.652103 -2.183292 0.113055
v 4.634809 -2.183292 -0.062526
v 4.583594 -2.183292 -0.231360
v 4.500425 -2.183292 -0.386958
v 4.388499 -2.183292 -0.523341
v 4.252116 -2.183292 -0.635267
v 4.096518 -2.183292 -0.718436
v 3.927684 -2.183292 -0.769651
v 3.752103 -2.183292 -0.786945
v 3.576522 -2.183292 -0.769651
v 3.407688 -2.183292 -0.718436
v 3.252090 -2.183292 -0.635267
v 3.115707 -2.183292 -0.523341
v 3.003780 -2.183292 -0.386958
v 2.920611 -2.183292 -0.231360
v 2.869396 -2.183292 -0.062526
v 2.852103 -2.183292 0.113056
v 2.869396 -2.183292 0.288637
v 2.920611 -2.183292 0.457471
v 3.003780 -2.183292 0.613069
v 3.115707 -2.183292 0.749452
v 3.252090 -2.183292 0.861378
v 3.407688 -2.183292 0.944547
v 3.576522 -2.183292 0.995762
v 3.752104 -2.183292 1.013055
v 3.927685 -2.183292 0.995762
v 4.096519 -2.183292 0.944547
v 4.252117 -2.183292 0.861377
v 4.388500 -2.183292 0.749451
v 4.500426 -2.183292 0.613068
v 4.583595 -2.183292 0.457469
v 4.634810 -2.183292 0.288635
v 4.752103 -1.468222 0.113055
v 4.752103 -2.285225 0.113055
v 4.732888 -1.468222 -0.082035
v 4.732888 -2.285225 -0.082035
v 4.675982 -1.468222 -0.269628
v 4.675982 -2.285225 -0.269628
v 4.583572 -1.468222 -0.442515
v 4.583572 -2.285225 -0.442515
v 4.459209 -1.468222 -0.594051
v 4.459209 -2.285225 -0.594051
v 4.307673 -1.468222 -0.718414
v 4.307673 -2.285225 -0.718414
v 4.134786 -1.468222 -0.810824
v 4.134786 -2.285225 -0.810824
v 3.947193 -1.468222 -0.867730
v 3.947193 -2.285225 -0.867730
v 3.752103 -1.468222 -0.886945
v 3.752103 -2.285225 -0.886945
v 3.557013 -1.468222 -0.867730
v 3.557013 -2.285225 -0.867730
v 3.369420 -1.468222 -0.810824
v 3.369420 -2.285225 -0.810824
v 3.196533 -1.468222 -0.718414
v 3.196533 -2.285225 -0.718414
v 3.044996 -1.468222 -0.594052
v 3.044996 -2.285225 -0.594051
v 2.920633 -1.468222 -0.442515
v 2.920633 -2.285225 -0.442515
v 2.828223 -1.468222 -0.269628
v 2.828223 -2.285225 -0.269628
v 2.771317 -1.468222 -0.082035
v 2.771317 -2.285225 -0.082035
v 2.752103 -1.468222 0.113056
v 2.752103 -2.285225 0.113056
v 2.771318 -1.468222 0.308146
v 2.771318 -2.285225 0.308146
v 2.828223 -1.468222 0.495739
v 2.828223 -2.285224 0.495739
v 2.920634 -1.468222 0.668626
v 2.920634 -2.285224 0.668626
v 3.044997 -1.468222 0.820162
v 3.044997 -2.285224 0.820163
v 3.196533 -1.468222 0.944525
v 3.196533 -2.285224 0.944525
v 3.369420 -1.468222 1.036935
v 3.369420 -2.285224 1.036935
v 3.557013 -1.468222 1.093841
v 3.557013 -2.285224 1.093841
v 3.752104 -1.468222 1.113055
v 3.752104 -2.285224 1.113055
v 3.947194 -1.468222 1.093840
v 3.947194 -2.285224 1.093840
v 4.134787 -1.468222 1.036934
v 4.134787 -2.285224 1.036934
v 4.307674 -1.468222 0.944524
v 4.307674 -2.285224 0.944524
v 4.459210 -1.468222 0.820161
v 4.459210 -2.285224 0.820161
v 4.583573 -1.468222 0.668624
v 4.583573 -2.285224 0.668625
v 4.675983 -1.468222 0.495737
v 4.675983 -2.285224 0.495737
v 4.732888 -1.468222 0.308144
v 4.732888 -2.285225 0.308144
v 3.252090 -1.468222 -0.635267
v 4.652103 -1.468222 0.113055
v 4.634810 -1.468222 0.288635
v 4.583595 -1.468222 0.457469
v 3.407688 -1.468222 0.944547
v 3.252090 -1.468222 0.861378
v 3.576522 -1.468222 0.995762
v 3.115707 -1.468222 0.749452
v 2.869396 -1.468222 0.288637
v 2.852103 -1.468222 0.113055
v 2.920611 -1.468222 0.457471
v 3.927684 -1.468222 -0.769651
v 4.500425 -1.468222 -0.386958
v 3.752103 -1.468222 -0.786945
v 4.096518 -1.468222 -0.718436
v 2.869396 -1.468222 -0.062526
v 4.388500 -1.468222 0.749451
v 4.500426 -1.468222 0.613067
v 4.252117 -1.468222 0.861377
v 3.576522 -1.468222 -0.769652
v 3.003780 -1.468222 -0.386958
v 3.115707 -1.468222 -0.523341
v 3.407688 -1.468222 -0.718436
v 3.752104 -1.468222 1.013055
v 3.003780 -1.468222 0.613069
v 3.927685 -1.468222 0.995762
v 4.388499 -1.468222 -0.523341
v 2.920611 -1.468222 -0.231360
v 4.252116 -1.468222 -0.635267
v 4.096519 -1.468222 0.944546
v 4.583594 -1.468222 -0.231360
v 4.634809 -1.468222 -0.062526
v 2.477553 -2.287889 0.649289
v 2.390174 -1.020897 0.649289
v 1.560076 -0.991770 0.649289
v 1.545512 -0.103419 0.649289
v 2.841631 -2.273326 0.649289
v 2.564932 -0.147109 0.649289
v 2.317359 -0.074293 0.649289
v 1.996970 -0.074293 0.649289
v 1.530950 -0.059730 0.649289
v 2.477553 -2.287889 -0.480915
v 2.390174 -1.020897 -0.480915
v 1.560076 -0.991770 -0.480915
v 1.545512 -0.103419 -0.480915
v 2.841631 -2.273326 -0.480915
v 2.564932 -0.147109 -0.480915
v 2.317359 -0.074293 -0.480915
v 1.996970 -0.074293 -0.480915
v 1.530950 -0.059730 -0.480915
v 1.557034 -0.806215 0.068517
v 1.556908 -0.798529 -0.009518
v 1.556535 -0.775767 -0.084555
v 1.551755 -0.484251 0.460832
v 1.555928 -0.738803 0.290746
v 1.550476 -0.406215 0.468517
v 1.552986 -0.559288 0.438069
v 1.555113 -0.689058 -0.214325
v 1.555928 -0.738803 -0.153710
v 1.554119 -0.628443 -0.264070
v 1.550476 -0.406215 -0.331482
v 1.551755 -0.484251 -0.323797
v 1.555113 -0.689057 0.351360
v 1.554119 -0.628443 0.401105
v 1.552986 -0.559288 -0.301034
v 1.556535 -0.775766 0.221591
v 1.556908 -0.798529 0.146554
v 1.534536 -0.070490 0.401105
v 1.875262 -0.070490 0.401105
v 1.996970 -0.074293 0.403138
v 2.317359 -0.074293 0.403138
v 1.530950 -0.059730 0.392275
v 2.564932 -0.147109 -0.303299
v 2.539554 -0.139645 -0.301034
v 1.546106 -0.139645 -0.301035
v 1.875270 -0.070490 -0.264071
v 1.534536 -0.070490 -0.264071
v 1.545512 -0.103419 -0.281672
v 1.996970 -0.074293 -0.266103
v 2.317359 -0.074293 -0.266103
v 1.530950 -0.059730 -0.255240
v 1.547336 -0.214682 -0.323797
v 2.748345 -0.214682 -0.323797
v 1.549546 -0.349466 0.462928
v 1.548616 -0.292718 0.468517
v 1.547336 -0.214682 0.460832
v 2.748344 -0.214682 0.460832
v 2.564932 -0.147109 0.440334
v 2.539553 -0.139645 0.438069
v 1.546106 -0.139645 0.438069
v 1.545512 -0.103419 0.418706
v 1.548616 -0.292718 -0.331482
v 1.549546 -0.349466 -0.325893
v 2.836161 -0.247035 -0.326983
v 2.836161 -0.292718 -0.331482
v 2.836161 -0.247035 -0.480915
v 2.836161 -0.559288 -0.301034
v 2.836161 -0.484251 -0.323797
v 2.836161 -0.628443 -0.264070
v 2.836161 -0.406215 -0.331482
v 2.836161 -0.349466 -0.325893
v 2.836161 -0.689058 -0.214325
v 2.836161 -0.247035 0.464018
v 2.836161 -0.292718 0.468518
v 2.836161 -0.247035 0.649289
v 2.836161 -0.559288 0.438069
v 2.836161 -0.484251 0.460832
v 2.836161 -0.628443 0.401105
v 2.836161 -0.406215 0.468518
v 2.836161 -0.349466 0.462928
v 2.836161 -0.689057 0.351360
v 2.836161 -0.738802 0.290746
v 2.836161 -0.738803 -0.153710
v 2.836161 -0.775766 0.221591
v 2.836161 -0.775767 -0.084555
v 2.836161 -0.798529 0.146554
v 2.836161 -0.798529 -0.009518
v 2.836161 -0.806215 0.068517
v 2.836161 -1.456241 -0.480915
v 2.836161 -1.456241 0.649289
v 2.841631 -1.456241 0.649289
v 2.841631 -1.456241 -0.480915
vt 0.296822 0.485388
vt 0.341844 0.471731
vt 0.383337 0.449553
vt 0.419706 0.419706
vt 0.449553 0.383337
vt 0.471731 0.341844
vt 0.485388 0.296822
vt 0.490000 0.250000
vt 0.485388 0.203178
vt 0.471731 0.158156
vt 0.449553 0.116663
vt 0.419706 0.080294
vt 0.383337 0.050447
vt 0.341844 0.028269
vt 0.296822 0.014612
vt 0.250000 0.010000
vt 0.203178 0.014612
vt 0.158156 0.028269
vt 0.116663 0.050447
vt 0.080294 0.080294
vt 0.050447 0.116663
vt 0.028269 0.158156
vt 0.014611 0.203179
vt 0.010000 0.250000
vt 0.014612 0.296822
vt 0.028269 0.341844
vt 0.050447 0.383337
vt 0.080295 0.419706
vt 0.116663 0.449553
vt 0.158156 0.471731
vt 0.203179 0.485389
vt 0.250000 0.490000
vt 1.000000 0.500000
vt 1.000000 1.000000
vt 0.968750 1.000000
vt 0.968750 0.500000
vt 0.937500 1.000000
vt 0.937500 0.500000
vt 0.906250 1.000000
vt 0.906250 0.500000
vt 0.875000 1.000000
vt 0.875000 0.500000
vt 0.843750 1.000000
vt 0.843750 0.500000
vt 0.812500 1.000000
vt 0.812500 0.500000
vt 0.781250 1.000000
vt 0.781250 0.500000
vt 0.750000 1.000000
vt 0.750000 0.500000
vt 0.718750 1.000000
vt 0.718750 0.500000
vt 0.687500 1.000000
vt 0.687500 0.500000
vt 0.656250 1.000000
vt 0.656250 0.500000
vt 0.625000 1.000000
vt 0.625000 0.500000
vt 0.593750 1.000000
vt 0.593750 0.500000
vt 0.562500 1.000000
vt 0.562500 0.500000
vt 0.531250 1.000000
vt 0.531250 0.500000
vt 0.500000 1.000000
vt 0.500000 0.500000
vt 0.468750 1.000000
vt 0.468750 0.500000
vt 0.437500 1.000000
vt 0.437500 0.500000
vt 0.406250 1.000000
vt 0.406250 0.500000
vt 0.375000 1.000000
vt 0.375000 0.500000
vt 0.343750 1.000000
vt 0.343750 0.500000
vt 0.312500 1.000000
vt 0.312500 0.500000
vt 0.281250 1.000000
vt 0.281250 0.500000
vt 0.250000 1.000000
vt 0.250000 0.500000
vt 0.218750 1.000000
vt 0.218750 0.500000
vt 0.187500 1.000000
vt 0.187500 0.500000
vt 0.156250 1.000000
vt 0.156250 0.500000
vt 0.125000 1.000000
vt 0.125000 0.500000
vt 0.093750 1.000000
vt 0.093750 0.500000
vt 0.062500 1.000000
vt 0.062500 0.500000
vt 0.296822 0.485388
vt 0.250000 0.490000
vt 0.203179 0.485389
vt 0.158156 0.471731
vt 0.116663 0.449553
vt 0.080295 0.419706
vt 0.050447 0.383337
vt 0.028269 0.341844
vt 0.014612 0.296822
vt 0.010000 0.250000
vt 0.014611 0.203179
vt 0.028269 0.158156
vt 0.050447 0.116663
vt 0.080294 0.080294
vt 0.116663 0.050447
vt 0.158156 0.028269
vt 0.203178 0.014612
vt 0.250000 0.010000
vt 0.296822 0.014612
vt 0.341844 0.028269
vt 0.383337 0.050447
vt 0.419706 0.080294
vt 0.449553 0.116663
vt 0.471731 0.158156
vt 0.485388 0.203178
vt 0.490000 0.250000
vt 0.485388 0.296822
vt 0.471731 0.341844
vt 0.449553 0.383337
vt 0.419706 0.419706
vt 0.383337 0.449553
vt 0.341844 0.471731
vt 0.031250 1.000000
vt 0.031250 0.500000
vt 0.000000 1.000000
vt 0.000000 0.500000
vt 0.750000 0.490000
vt 0.796822 0.485388
vt 0.841844 0.471731
vt 0.883337 0.449553
vt 0.919706 0.419706
vt 0.949553 0.383337
vt 0.971731 0.341844
vt 0.985388 0.296822
vt 0.990000 0.250000
vt 0.966000 0.250000
vt 0.961849 0.292139
vt 0.949558 0.332660
vt 0.929597 0.370003
vt 0.902735 0.402735
vt 0.870003 0.429597
vt 0.832660 0.449558
vt 0.792139 0.461850
vt 0.750000 0.466000
vt 0.707861 0.461850
vt 0.667341 0.449558
vt 0.629997 0.429598
vt 0.597265 0.402735
vt 0.570403 0.370003
vt 0.550442 0.332660
vt 0.538150 0.292140
vt 0.534000 0.250000
vt 0.510000 0.250000
vt 0.514612 0.296822
vt 0.528269 0.341844
vt 0.550447 0.383337
vt 0.580295 0.419706
vt 0.616663 0.449553
vt 0.658156 0.471731
vt 0.703179 0.485389
vt 0.718750 0.769375
vt 0.718750 1.000000
vt 0.750000 1.000000
vt 0.750000 0.769375
vt 0.625000 0.769375
vt 0.625000 1.000000
vt 0.656250 1.000000
vt 0.656250 0.769375
vt 0.687500 1.000000
vt 0.687500 0.769375
vt 0.218750 0.769375
vt 0.218750 1.000000
vt 0.250000 1.000000
vt 0.250000 0.769375
vt 0.781250 0.769375
vt 0.781250 1.000000
vt 0.812500 1.000000
vt 0.812500 0.769375
vt 0.843750 0.769375
vt 0.843750 1.000000
vt 0.875000 1.000000
vt 0.875000 0.769375
vt 0.000000 0.769375
vt 0.000000 1.000000
vt 0.031250 1.000000
vt 0.031250 0.769375
vt 0.468750 0.769375
vt 0.468750 1.000000
vt 0.500000 1.000000
vt 0.500000 0.769375
vt 0.156250 0.769375
vt 0.156250 1.000000
vt 0.187500 1.000000
vt 0.187500 0.769375
vt 0.531250 1.000000
vt 0.531250 0.769375
vt 0.062500 1.000000
vt 0.062500 0.769375
vt 0.906250 1.000000
vt 0.906250 0.769375
vt 0.406250 0.769375
vt 0.406250 1.000000
vt 0.437500 1.000000
vt 0.437500 0.769375
vt 0.937500 1.000000
vt 0.937500 0.769375
vt 0.593750 0.769375
vt 0.593750 1.000000
vt 0.093750 0.769375
vt 0.093750 1.000000
vt 0.125000 1.000000
vt 0.125000 0.769375
vt 0.562500 0.769375
vt 0.562500 1.000000
vt 0.375000 0.769375
vt 0.375000 1.000000
vt 0.312500 0.769375
vt 0.312500 1.000000
vt 0.343750 1.000000
vt 0.343750 0.769375
vt 0.968750 0.769375
vt 0.968750 1.000000
vt 1.000000 1.000000
vt 1.000000 0.769375
vt 0.281250 1.000000
vt 0.281250 0.769375
vt 0.538150 0.207861
vt 0.550442 0.167341
vt 0.570402 0.129997
vt 0.597265 0.097265
vt 0.629997 0.070403
vt 0.667340 0.050442
vt 0.707860 0.038150
vt 0.750000 0.034000
vt 0.792140 0.038150
vt 0.832659 0.050442
vt 0.870003 0.070403
vt 0.902735 0.097265
vt 0.929597 0.129997
vt 0.949558 0.167340
vt 0.961850 0.207860
vt 0.985388 0.203178
vt 0.971731 0.158156
vt 0.949553 0.116663
vt 0.919706 0.080294
vt 0.883337 0.050447
vt 0.841844 0.028269
vt 0.796822 0.014612
vt 0.750000 0.010000
vt 0.703178 0.014612
vt 0.658156 0.028269
vt 0.616663 0.050447
vt 0.580294 0.080294
vt 0.550447 0.116663
vt 0.528269 0.158156
vt 0.514611 0.203179
vt 0.000000 0.000000
vt 0.000000 0.000000
vt 0.000000 0.000000
vt 0.000000 0.000000
vt 0.000000 0.000000
vt 0.000000 0.000000
vt 0.000000 0.000000
vt 0.000000 0.000000
vt 0.000000 0.000000
vt 0.000000 0.000000
vt 0.000000 0.000000
vt 0.000000 0.000000
vt 0.000000 0.000000
vt 0.000000 0.000000
vt 0.000000 0.000000
vt 0.000000 0.000000
vt 0.000000 0.000000
vt 0.000000 0.000000
vt 0.000000 0.000000
vt 0.000000 0.000000
vt 0.000000 0.000000
vt 0.000000 0.000000
vt 0.000000 0.000000
vt 0.000000 0.000000
vt 0.000000 0.000000
vt 0.000000 0.000000
vt 0.000000 0.000000
vt 0.000000 0.000000
vt 0.000000 0.000000
vt 0.000000 0.000000
vt 0.000000 0.000000
vt 0.000000 0.000000
vt 0.000000 0.000000
vt 0.000000 0.000000
vt 0.000000 0.000000
vt 0.000000 0.000000
vt 0.000000 0.000000
vt 0.000000 0.000000
vt 0.000000 0.000000
vt 0.000000 0.000000
vt 0.000000 0.000000
vt 0.000000 0.000000
vt 0.000000 0.000000
vt 0.000000 0.000000
vt 0.000000 0.000000
vt 0.000000 0.000000
vt 0.000000 0.000000
vt 0.000000 0.000000
vt 0.000000 0.000000
vt 0.000000 0.000000
vt 0.000000 0.000000
vt 0.000000 0.000000
vt 0.000000 0.000000
vt 0.000000 0.000000
vt 0.000000 0.000000
vt 0.000000 0.000000
vt 0.000000 0.000000
vt 0.000000 0.000000
vt 0.000000 0.000000
vt 0.218750 0.593068
vt 0.218750 0.914170
vt 0.250000 0.914170
vt 0.250000 0.592748
vt 0.781250 0.593068
vt 0.781250 0.914170
vt 0.812500 0.914169
vt 0.812500 0.593376
vt 0.750000 0.592748
vt 0.750000 0.914170
vt 0.843750 0.593659
vt 0.843750 0.914169
vt 0.875000 0.914169
vt 0.875000 0.593908
vt 0.000000 0.594388
vt 0.000000 0.914170
vt 0.031250 0.914170
vt 0.031250 0.594356
vt 0.156250 0.593659
vt 0.156250 0.914170
vt 0.187500 0.914170
vt 0.187500 0.593376
vt 0.062500 0.914170
vt 0.062500 0.594263
vt 0.906250 0.914170
vt 0.906250 0.594111
vt 0.937500 0.914169
vt 0.937500 0.594263
vt 0.093750 0.594111
vt 0.093750 0.914170
vt 0.125000 0.914170
vt 0.125000 0.593908
vt 0.968750 0.594356
vt 0.968750 0.914170
vt 1.000000 0.914170
vt 1.000000 0.594388
vt 0.272725 0.914169
vt 0.272725 0.592516
vt 0.718750 0.656396
vt 0.718750 0.956648
vt 0.731706 0.978602
vt 0.750000 0.978602
vt 0.750000 0.656716
vt 0.000000 0.000000
vt 0.000000 0.000000
vt 0.656250 0.738377
vt 0.656250 0.653196
vt 0.650703 0.652299
vt 0.657969 0.768804
vt 0.657969 0.848901
vt 0.687500 0.904450
vt 0.687500 0.656088
vt 0.671130 0.655940
vt 0.772725 0.978602
vt 0.772725 0.656948
vt 0.000000 0.000000
vt 0.000000 0.000000
vt 0.000000 0.000000
vt 0.000000 0.000000
vt 0.312500 0.656088
vt 0.312500 0.904450
vt 0.342031 0.848902
vt 0.342031 0.768804
vt 0.343750 0.738379
vt 0.343750 0.653196
vt 0.328870 0.655940
vt 0.250000 0.656716
vt 0.250000 0.978602
vt 0.268294 0.978602
vt 0.281250 0.956648
vt 0.281250 0.656396
vt 0.690609 0.910795
vt 0.309392 0.910795
vt 0.727275 0.592516
vt 0.727275 0.914169
vt 0.349297 0.652299
vt 0.182180 0.750000
vt 0.323456 0.750000
vt 0.323456 0.749316
vt 0.182180 0.749316
vt 0.375000 0.801544
vt 0.375000 0.942820
vt 0.526151 0.942820
vt 0.526151 0.923578
vt 0.520440 0.924141
vt 0.513347 0.923442
vt 0.506253 0.924141
vt 0.496499 0.923180
vt 0.487119 0.920335
vt 0.478475 0.915714
vt 0.470898 0.909496
vt 0.464680 0.901919
vt 0.460059 0.893275
vt 0.457214 0.883895
vt 0.456253 0.874141
vt 0.457214 0.864386
vt 0.460059 0.855006
vt 0.464680 0.846362
vt 0.470898 0.838785
vt 0.478475 0.832567
vt 0.487119 0.827947
vt 0.496499 0.825101
vt 0.506253 0.824141
vt 0.513347 0.824839
vt 0.520440 0.824141
vt 0.526151 0.824703
vt 0.526151 0.801544
vt 0.227275 0.978602
vt 0.227275 0.656948
vt 0.000000 0.000000
vt 0.000000 0.000000
vt 0.000000 0.000000
vt 0.000000 0.000000
vn -0.0000 1.0000 -0.0000
vn 0.9952 -0.0000 -0.0980
vn 0.9569 0.0000 -0.2903
vn 0.8819 0.0000 -0.4714
vn 0.7730 -0.0000 -0.6344
vn 0.6344 -0.0000 -0.7730
vn 0.4714 -0.0000 -0.8819
vn 0.2903 -0.0000 -0.9569
vn 0.0980 -0.0000 -0.9952
vn -0.0980 -0.0000 -0.9952
vn -0.2903 -0.0000 -0.9569
vn -0.4714 -0.0000 -0.8819
vn -0.6344 -0.0000 -0.7730
vn -0.7730 -0.0000 -0.6344
vn -0.8819 -0.0000 -0.4714
vn -0.9569 -0.0000 -0.2903
vn -0.9952 -0.0000 -0.0980
vn -0.9952 -0.0000 0.0980
vn -0.9569 -0.0000 0.2903
vn -0.8819 0.0000 0.4714
vn -0.7730 0.0000 0.6344
vn -0.6344 0.0000 0.7730
vn -0.4714 0.0000 0.8819
vn -0.2903 0.0000 0.9569
vn -0.0980 0.0000 0.9952
vn 0.0980 0.0000 0.9952
vn 0.2903 0.0000 0.9569
vn 0.4714 0.0000 0.8819
vn 0.6344 -0.0000 0.7730
vn 0.7730 0.0000 0.6344
vn 0.8819 0.0000 0.4714
vn 0.0000 -1.0000 0.0000
vn 0.9569 0.0000 0.2903
vn 0.9952 0.0000 0.0980
vn -0.9999 -0.0164 -0.0000
vn 0.2822 0.9594 -0.0000
vn -1.0000 0.0000 0.0000
vn 0.0312 0.9995 -0.0000
vn 0.0400 -0.9992 0.0000
vn -0.9976 -0.0688 0.0000
vn -0.0351 -0.9994 0.0000
vn -0.0000 -0.0000 -1.0000
vn -0.0000 0.0000 1.0000
vn -0.9487 -0.3162 0.0000
vn -0.0000 0.0980 0.9952
vn 0.0000 0.2903 -0.9569
vn 0.0000 0.0980 -0.9952
vn 0.0000 0.6344 -0.7730
vn 0.0000 0.9952 0.0980
vn -0.0000 0.4714 0.8819
vn 0.0000 0.9569 0.2903
vn -0.0000 0.7730 -0.6344
vn -0.0000 0.8819 -0.4714
vn -0.0000 0.7730 0.6344
vn -0.0000 0.2903 0.9569
vn 0.0000 0.9952 -0.0980
vn 0.0000 0.4714 -0.8819
vn 0.0000 -0.0980 0.9952
vn -0.0000 0.8819 0.4714
vn 0.0000 0.9569 -0.2903
vn -0.0000 0.6344 0.7730
vn 0.0000 -0.0980 -0.9952
vn 0.0000 -0.6344 -0.7730
vn -0.0000 -0.4714 -0.8819
vn -0.0000 -0.4714 0.8819
vn 0.0000 -0.2903 -0.9569
vn -0.0000 -0.2903 0.9569
vn 0.0000 -0.6344 0.7730
vn 1.0000 0.0000 0.0000
vn 0.3457 0.9383 -0.0000
usemtl None
s off
f 2/1/1 3/2/1 4/3/1 5/4/1 6/5/1 7/6/1 8/7/1 9/8/1 10/9/1 11/10/1 12/11/1 13/12/1 14/13/1 15/14/1 16/15/1 17/16/1 18/17/1 19/18/1 20/19/1 21/20/1 22/21/1 23/22/1 24/23/1 25/24/1 26/25/1 27/26/1 28/27/1 29/28/1 30/29/1 31/30/1 32/31/1 1/32/1
f 33/33/2 34/34/2 36/35/2 35/36/2
f 35/36/3 36/35/3 38/37/3 37/38/3
f 37/38/4 38/37/4 40/39/4 39/40/4
f 39/40/5 40/39/5 42/41/5 41/42/5
f 41/42/6 42/41/6 44/43/6 43/44/6
f 43/44/7 44/43/7 46/45/7 45/46/7
f 45/46/8 46/45/8 48/47/8 47/48/8
f 47/48/9 48/47/9 50/49/9 49/50/9
f 49/50/10 50/49/10 52/51/10 51/52/10
f 51/52/11 52/51/11 54/53/11 53/54/11
f 53/54/12 54/53/12 56/55/12 55/56/12
f 55/56/13 56/55/13 58/57/13 57/58/13
f 57/58/14 58/57/14 60/59/14 59/60/14
f 59/60/15 60/59/15 62/61/15 61/62/15
f 61/62/16 62/61/16 64/63/16 63/64/16
f 63/64/17 64/63/17 66/65/17 65/66/17
f 65/66/18 66/65/18 68/67/18 67/68/18
f 67/68/19 68/67/19 70/69/19 69/70/19
f 69/70/20 70/69/20 72/71/20 71/72/20
f 71/72/21 72/71/21 74/73/21 73/74/21
f 73/74/22 74/73/22 76/75/22 75/76/22
f 75/76/23 76/75/23 78/77/23 77/78/23
f 77/78/24 78/77/24 80/79/24 79/80/24
f 79/80/25 80/79/25 82/81/25 81/82/25
f 81/82/26 82/81/26 84/83/26 83/84/26
f 83/84/27 84/83/27 86/85/27 85/86/27
f 85/86/28 86/85/28 88/87/28 87/88/28
f 87/88/29 88/87/29 90/89/29 89/90/29
f 89/90/30 90/89/30 92/91/30 91/92/30
f 91/92/31 92/91/31 94/93/31 93/94/31
f 36/95/32 34/96/32 96/97/32 94/98/32 92/99/32 90/100/32 88/101/32 86/102/32 84/103/32 82/104/32 80/105/32 78/106/32 76/107/32 74/108/32 72/109/32 70/110/32 68/111/32 66/112/32 64/113/32 62/114/32 60/115/32 58/116/32 56/117/32 54/118/32 52/119/32 50/120/32 48/121/32 46/122/32 44/123/32 42/124/32 40/125/32 38/126/32
f 93/94/33 94/93/33 96/127/33 95/128/33
f 95/128/34 96/127/34 34/129/34 33/130/34
f 33/131/1 35/132/1 37/133/1 39/134/1 41/135/1 43/136/1 45/137/1 47/138/1 49/139/1 110/140/1 108/141/1 111/142/1 125/143/1 123/144/1 109/145/1 127/146/1 128/147/1 98/148/1 99/149/1 100/150/1 114/151/1 113/152/1 115/153/1 126/154/1 122/155/1 120/156/1 81/157/1 83/158/1 85/159/1 87/160/1 89/161/1 91/162/1 93/163/1 95/164/1
f 116/165/26 10/166/26 9/167/26 110/168/26
f 118/169/29 13/170/29 12/171/29 97/172/29
f 97/172/28 12/171/28 11/173/28 119/174/28
f 122/175/10 26/176/10 25/177/10 120/178/10
f 108/179/24 8/180/24 7/181/24 111/182/24
f 110/168/25 9/167/25 8/180/25 108/179/25
f 125/183/22 6/184/22 5/185/22 123/186/22
f 98/187/17 1/188/17 32/189/17 99/190/17
f 105/191/2 18/192/2 17/193/2 106/194/2
f 115/195/12 28/196/12 27/197/12 126/198/12
f 106/194/34 17/193/34 16/199/34 112/200/34
f 99/190/16 32/189/16 31/201/16 100/202/16
f 123/186/21 5/185/21 4/203/21 109/204/21
f 121/205/4 20/206/4 19/207/4 107/208/4
f 109/204/20 4/203/20 3/209/20 127/210/20
f 117/211/30 14/212/30 13/170/30 118/169/30
f 114/213/14 30/214/14 29/215/14 113/216/14
f 126/198/11 27/197/11 26/176/11 122/175/11
f 124/217/31 15/218/31 14/212/31 117/211/31
f 104/219/5 21/220/5 20/206/5 121/205/5
f 101/221/7 23/222/7 22/223/7 102/224/7
f 128/225/18 2/226/18 1/227/18 98/228/18
f 111/182/23 7/181/23 6/184/23 125/183/23
f 120/178/9 25/177/9 24/229/9 103/230/9
f 119/174/27 11/173/27 10/166/27 116/165/27
f 107/208/3 19/207/3 18/192/3 105/191/3
f 100/202/15 31/201/15 30/214/15 114/213/15
f 127/210/19 3/209/19 2/226/19 128/225/19
f 112/200/33 16/199/33 15/218/33 124/217/33
f 103/230/8 24/229/8 23/222/8 101/221/8
f 113/216/13 29/215/13 28/196/13 115/195/13
f 81/157/1 120/156/1 103/231/1 101/232/1 102/233/1 104/234/1 121/235/1 107/236/1 105/237/1 106/238/1 112/239/1 124/240/1 117/241/1 118/242/1 97/243/1 119/244/1 116/245/1 110/140/1 49/139/1 51/246/1 53/247/1 55/248/1 57/249/1 59/250/1 61/251/1 63/252/1 65/253/1 67/254/1 69/255/1 71/256/1 73/257/1 75/258/1 77/259/1 79/260/1
f 102/224/6 22/223/6 21/220/6 104/219/6
f 132/261/35 187/262/35 186/263/35 182/264/35 181/265/35 180/266/35 152/267/35 150/268/35 153/269/35 160/270/35 159/271/35 151/272/35 162/273/35 163/274/35 147/275/35 148/276/35 149/277/35 155/278/35 154/279/35 156/280/35 161/281/35 158/282/35 157/283/35 189/284/35 188/285/35 178/286/35 171/287/35 174/288/35 141/289/35 140/290/35 131/291/35
f 134/292/36 184/293/36 185/294/36 167/295/36 135/296/36
f 133/297/37 217/298/37 218/299/37 142/300/37
f 135/296/1 167/295/1 166/301/1 136/302/1
f 136/302/38 166/301/38 165/303/38 168/304/38 137/305/38
f 129/306/39 138/307/39 142/300/39 133/297/39
f 130/308/40 139/309/40 138/307/40 129/306/40
f 131/291/41 140/290/41 139/309/41 130/308/41
f 138/307/42 139/309/42 140/290/42 141/289/42 146/310/42 145/311/42 144/312/42 143/313/42 192/314/42 215/315/42 218/299/42 142/300/42
f 129/306/43 133/297/43 217/298/43 216/316/43 201/317/43 134/292/43 135/296/43 136/302/43 137/305/43 132/261/43 131/291/43 130/308/43
f 141/289/44 174/288/44 173/318/44 177/319/44 146/310/44
f 158/320/45 194/321/45 196/322/45 157/323/45
f 150/324/46 203/325/46 202/326/46 153/327/46
f 152/328/47 205/329/47 203/325/47 150/324/47
f 160/330/48 204/331/48 207/332/48 159/333/48
f 147/334/49 214/335/49 213/336/49 148/337/49
f 156/338/50 195/339/50 193/340/50 161/341/50
f 148/337/51 213/336/51 211/342/51 149/343/51
f 159/333/52 207/332/52 208/344/52 151/345/52
f 151/345/53 208/344/53 210/346/53 162/347/53
f 155/348/54 209/349/54 198/350/54 154/351/54
f 161/341/55 193/340/55 194/321/55 158/320/55
f 163/352/56 212/353/56 214/354/56 147/355/56
f 153/327/57 202/326/57 204/331/57 160/330/57
f 157/323/58 196/322/58 197/356/58 189/357/58
f 149/343/59 211/342/59 209/349/59 155/348/59
f 162/347/60 210/346/60 212/353/60 163/352/60
f 154/351/61 198/350/61 195/339/61 156/338/61
f 182/358/62 183/359/62 199/360/62 200/361/62 181/362/62
f 175/363/38 145/311/38 146/310/38 177/319/38 172/364/38
f 165/365/63 164/366/63 168/367/63
f 164/366/64 165/365/64 166/368/64 167/369/64 185/370/64 186/371/64 187/372/64
f 181/362/47 200/361/47 206/373/47 180/374/47
f 187/262/44 132/261/44 137/305/44 168/304/44 164/375/44
f 169/376/36 143/313/36 144/312/36 176/377/36 170/378/36
f 171/379/65 170/380/65 176/381/65 175/382/65 172/383/65 173/384/65 174/385/65
f 188/386/58 191/387/58 190/388/58 179/389/58 178/390/58
f 176/377/1 144/312/1 145/311/1 175/363/1
f 186/371/66 185/370/66 184/391/66 183/359/66 182/358/66
f 178/390/67 179/389/67 169/392/67 170/380/67 171/379/67
f 180/393/62 206/394/62 205/329/62 152/328/62
f 173/384/68 172/383/68 177/395/68
f 215/396/1 216/397/1 217/398/1 218/399/1
f 216/400/69 215/401/69 192/402/69 190/403/69 191/404/69 197/405/69 196/406/69 194/407/69 193/408/69 195/409/69 198/410/69 209/411/69 211/412/69 213/413/69 214/414/69 212/415/69 210/416/69 208/417/69 207/418/69 204/419/69 202/420/69 203/421/69 205/422/69 206/423/69 200/424/69 199/425/69 201/426/69
f 197/427/45 191/387/45 188/386/45 189/428/45
f 199/429/70 183/430/70 184/293/70 134/292/70 201/317/70
f 192/314/70 143/313/70 169/376/70 179/431/70 190/432/70
